<?xml version="1.0" encoding="utf-8"?>
<!-- Generator: Adobe Illustrator 24.2.1, SVG Export Plug-In . SVG Version: 6.00 Build 0)  -->
<svg version="1.1" id="Layer_1" xmlns="http://www.w3.org/2000/svg" xmlns:xlink="http://www.w3.org/1999/xlink" x="0px" y="0px"
	 viewBox="0 0 768 720" style="enable-background:new 0 0 768 720;" xml:space="preserve">
<style type="text/css">
	.st0{clip-path:url(#SVGID_2_);}
	.st1{fill-rule:evenodd;clip-rule:evenodd;fill-opacity:0;}
	.st2{fill-rule:evenodd;clip-rule:evenodd;fill:#75817F;}
	.st3{fill-rule:evenodd;clip-rule:evenodd;}
	.st4{fill:none;stroke:#000000;stroke-linejoin:round;stroke-miterlimit:10;}
	.st5{fill-rule:evenodd;clip-rule:evenodd;fill:#A4C2F4;}
	.st6{fill:none;stroke:#45818E;stroke-width:24;stroke-linejoin:round;stroke-miterlimit:10;}
</style>
<g>
	<defs>
		<rect id="SVGID_1_" width="768" height="720"/>
	</defs>
	<clipPath id="SVGID_2_">
		<use xlink:href="#SVGID_1_"  style="overflow:visible;"/>
	</clipPath>
	<g class="st0">
		<path class="st1" d="M0,0h768v720H0V0z"/>
		<path class="st2" d="M622.1,133.5c-42.3-42-183.7-51.3-258.6,5.2S185.9,398.2,172.7,471.9c-13.2,73.8,37.4,123,111.6,109.4
			c74.1-13.6,277-116.2,333.3-190.9S664.5,175.5,622.1,133.5L622.1,133.5z"/>
		<path class="st2" d="M115.4,493l159.8-95.9l78.2,78.2l-95.9,159.8L115.4,493z"/>
		<path class="st2" d="M43.7,451.4L43.7,451.4c87.3-87.3,215.2-100.9,285.8-30.3s57,198.5-30.3,285.8l0,0
			c19.6-79.9,1.5-156.5-48.7-206.8S123.6,431.8,43.7,451.4L43.7,451.4z"/>
		<path class="st2" d="M111.8,496.6l142.1,142.1l-7.3,7.3L104.5,503.9L111.8,496.6z"/>
		<path class="st2" d="M116,523.4l110.3,110.3L219,641L108.7,530.8L116,523.4z"/>
		<path class="st2" d="M121,551l77,77l-7.3,7.3l-77-77L121,551z"/>
		<path class="st3" d="M429.5,204.3L429.5,204.3c32.5-32.5,85.2-32.5,117.8,0l0,0c15.6,15.6,24.4,36.8,24.4,58.9
			s-8.8,43.3-24.4,58.9l0,0c-32.5,32.5-85.2,32.5-117.8,0l0,0C397,289.6,397,236.9,429.5,204.3z"/>
		<path class="st4" d="M429.5,204.3L429.5,204.3c32.5-32.5,85.2-32.5,117.8,0l0,0c15.6,15.6,24.4,36.8,24.4,58.9
			s-8.8,43.3-24.4,58.9l0,0c-32.5,32.5-85.2,32.5-117.8,0l0,0C397,289.6,397,236.9,429.5,204.3z"/>
		<path class="st5" d="M455.2,184.2l19.4-2.4l19.8,160.6l-19.4,2.4L455.2,184.2z"/>
		<path class="st4" d="M455.2,184.2l19.4-2.4l19.8,160.6l-19.4,2.4L455.2,184.2z"/>
		<path class="st5" d="M436.1,197.8l8.3-1l17.7,143.6l-8.3,1L436.1,197.8z"/>
		<path class="st4" d="M436.1,197.8l8.3-1l17.7,143.6l-8.3,1L436.1,197.8z"/>
		<path class="st5" d="M520.6,192l11.1-1.4l17.4,141.6l-11.1,1.4L520.6,192z"/>
		<path class="st4" d="M520.6,192l11.1-1.4l17.4,141.6l-11.1,1.4L520.6,192z"/>
		<path class="st5" d="M545.7,194.5l3.6-0.4l14.9,120.8l-3.6,0.4L545.7,194.5z"/>
		<path class="st4" d="M545.7,194.5l3.6-0.4l14.9,120.8l-3.6,0.4L545.7,194.5z"/>
		<path class="st1" d="M429.5,204.3L429.5,204.3c32.5-32.5,85.2-32.5,117.8,0l0,0c15.6,15.6,24.4,36.8,24.4,58.9
			s-8.8,43.3-24.4,58.9l0,0c-32.5,32.5-85.2,32.5-117.8,0l0,0C397,289.6,397,236.9,429.5,204.3z"/>
		<path class="st6" d="M429.5,204.3L429.5,204.3c32.5-32.5,85.2-32.5,117.8,0l0,0c15.6,15.6,24.4,36.8,24.4,58.9
			s-8.8,43.3-24.4,58.9l0,0c-32.5,32.5-85.2,32.5-117.8,0l0,0C397,289.6,397,236.9,429.5,204.3z"/>
		<g>
			<path class="st3" d="M494.4,396c-27.1,2.5-68,12.1-111.7,23.3l-2.4-22C418.2,402.2,456.3,401.1,494.4,396z"/>
			<path class="st3" d="M269.5,423.7c27-3.2,67.6-13.9,111-26.2l3,21.9C345.5,415.5,307.5,417.6,269.5,423.7z"/>
		</g>
		<g>
			<path class="st3" d="M399.3,372c-18.6,2-46.6,10-76.6,19.1l-1.6-18C347.1,377,373.2,376.1,399.3,372z"/>
			<path class="st3" d="M245,394.6c18.5-2.6,46.4-11.4,76.2-21.5l2,18C297.1,387.9,271.1,389.7,245,394.6z"/>
		</g>
		<g>
			<path class="st3" d="M612,364.6c-18.6,2-46.6,10-76.6,19.1l-1.6-18C559.8,369.6,585.9,368.7,612,364.6z"/>
			<path class="st3" d="M457.7,387.3c18.5-2.6,46.4-11.4,76.2-21.5l2,18C509.9,380.6,483.8,382.3,457.7,387.3z"/>
		</g>
		<g>
			<path class="st3" d="M380.3,433.5c-20,2-50.2,10-82.5,19.1l-1.8-18C324.1,438.5,352.2,437.6,380.3,433.5z"/>
			<path class="st3" d="M214.2,456.1c19.9-2.6,50-11.4,82-21.5l2.2,18C270.3,449.4,242.2,451.1,214.2,456.1z"/>
		</g>
		<g>
			<path class="st3" d="M544.7,432.4c-21.5,3.6-54.1,17.7-88.8,33.9l-1.9-32C484.1,441.4,514.3,439.8,544.7,432.4z"/>
			<path class="st3" d="M365.8,472.7c21.5-4.6,53.8-20.3,88.3-38.2l2.4,31.9C426.2,460.8,396,463.8,365.8,472.7z"/>
		</g>
		<g>
			<path class="st3" d="M404.4,315.3c-15.9,1.7-40,8.2-65.7,15.8l-1.4-14.9C359.6,319.4,381.9,318.7,404.4,315.3z"/>
			<path class="st3" d="M272,334c15.9-2.2,39.8-9.5,65.4-17.8l1.8,14.9C316.7,328.5,294.3,329.9,272,334z"/>
		</g>
		<g>
			<path class="st3" d="M558.7,120.3c-18.6,2-46.6,10-76.6,19.1l-1.6-18C506.4,125.4,532.5,124.5,558.7,120.3z"/>
			<path class="st3" d="M404.4,143c18.5-2.6,46.4-11.4,76.2-21.5l2,18C456.5,136.3,430.4,138,404.4,143z"/>
		</g>
		<g>
			<path class="st3" d="M349.1,530.1c-18.6,2-46.6,10-76.6,19.1l-1.6-18C296.9,535.1,323,534.2,349.1,530.1z"/>
			<path class="st3" d="M194.8,552.8c18.5-2.6,46.4-11.4,76.2-21.5l2,18C247,546,220.9,547.8,194.8,552.8z"/>
		</g>
		<g>
			<path class="st3" d="M282.1,407.1c-24.8,1.7-62.2,8.5-102.1,16.3l-2.2-15.4C212.4,411.4,247.2,410.6,282.1,407.1z"/>
			<path class="st3" d="M76.4,426.4c24.7-2.2,61.8-9.8,101.5-18.4l2.7,15.3C145.9,420.7,111.1,422.2,76.4,426.4z"/>
		</g>
	</g>
</g>
</svg>
