<svg version="1.1" viewBox="0.0 0.0 768.0 720.0" fill="none" stroke="none" stroke-linecap="square" stroke-miterlimit="10" xmlns:xlink="http://www.w3.org/1999/xlink" xmlns="http://www.w3.org/2000/svg"><clipPath id="p.0"><path d="m0 0l768.0 0l0 720.0l-768.0 0l0 -720.0z" clip-rule="nonzero"/></clipPath><g clip-path="url(#p.0)"><path fill="#000000" fill-opacity="0.0" d="m0 0l768.0 0l0 720.0l-768.0 0z" fill-rule="evenodd"/><path fill="#45818e" d="m622.1261 129.47948c-42.328857 -41.965576 -183.65262 -51.253975 -258.55707 5.1509705c-74.90445 56.404953 -177.65167 259.50183 -190.86955 333.2787c-13.217865 73.776886 37.42186 122.96341 111.5623 109.38254c74.14047 -13.580872 276.96973 -116.23242 333.28046 -190.8678c56.31073 -74.635376 46.91272 -214.97884 4.5838623 -256.9444z" fill-rule="evenodd"/><path fill="#45818e" d="m115.42287 493.00775l159.82655 -95.895905l78.181946 78.181946l-95.895935 159.82657z" fill-rule="evenodd"/><path fill="#45818e" d="m43.673782 451.421l0 0c87.29205 -87.29205 215.24684 -100.86566 285.79498 -30.317505c70.54819 70.54819 56.97458 198.50296 -30.317474 285.795l0 0c19.59433 -79.90436 1.5477295 -156.50848 -48.710648 -206.76688c-50.258377 -50.258392 -126.86249 -68.30496 -206.76688 -48.710632z" fill-rule="evenodd"/><path fill="#666666" d="m223.3232 396.66833l0 0c-12.937637 -11.855377 37.7827 -88.27731 113.287 -170.69318c75.5043 -82.41585 147.20065 -139.61641 160.13828 -127.76102l0 0c-39.64685 28.47113 -94.63632 79.78116 -148.42545 138.49406c-53.789154 58.712906 -100.09975 117.975784 -124.99983 159.96013z" fill-rule="evenodd"/><path fill="#666666" d="m61.346767 449.44766l0 0c-3.4926643 -10.3550415 29.925419 -31.002075 74.64139 -46.116455c44.715958 -15.11438 83.79678 -18.972626 87.289444 -8.617615l0 0c-21.103882 0.55895996 -52.271866 7.2248535 -84.127426 17.99234c-31.855576 10.767456 -60.680603 24.37973 -77.803406 36.74173z" fill-rule="evenodd"/><path fill="#45818e" d="m111.833145 496.60095l142.11256 142.11255l-7.3260803 7.326111l-142.11256 -142.11258z" fill-rule="evenodd"/><path fill="#45818e" d="m116.03767 523.4306l110.292 110.29199l-7.3260803 7.326111l-110.292 -110.29205z" fill-rule="evenodd"/><path fill="#45818e" d="m121.02748 551.04443l77.02403 77.02399l-7.3260803 7.326111l-77.02403 -77.02405z" fill-rule="evenodd"/><path fill="#000000" d="m429.47342 204.337l0 0c32.516205 -32.51622 85.23544 -32.51622 117.75168 0l0 0c15.614868 15.614853 24.387146 36.79312 24.387146 58.875854c0 22.082733 -8.772278 43.260986 -24.387146 58.875824l0 0c-32.516235 32.516235 -85.23547 32.516235 -117.75168 0l0 0c-32.516235 -32.516205 -32.516235 -85.23544 0 -117.75168z" fill-rule="evenodd"/><path stroke="#000000" stroke-width="1.0" stroke-linejoin="round" stroke-linecap="butt" d="m429.47342 204.337l0 0c32.516205 -32.51622 85.23544 -32.51622 117.75168 0l0 0c15.614868 15.614853 24.387146 36.79312 24.387146 58.875854c0 22.082733 -8.772278 43.260986 -24.387146 58.875824l0 0c-32.516235 32.516235 -85.23547 32.516235 -117.75168 0l0 0c-32.516235 -32.516205 -32.516235 -85.23544 0 -117.75168z" fill-rule="evenodd"/><path fill="#a4c2f4" d="m455.2159 184.18558l19.395172 -2.3826447l19.773743 160.6393l-19.395172 2.38266z" fill-rule="evenodd"/><path stroke="#000000" stroke-width="1.0" stroke-linejoin="round" stroke-linecap="butt" d="m455.2159 184.18558l19.395172 -2.3826447l19.773743 160.6393l-19.395172 2.38266z" fill-rule="evenodd"/><path fill="#a4c2f4" d="m436.05994 197.75232l8.328125 -1.0243073l17.680573 143.62675l-8.328125 1.0243225z" fill-rule="evenodd"/><path stroke="#000000" stroke-width="1.0" stroke-linejoin="round" stroke-linecap="butt" d="m436.05994 197.75232l8.328125 -1.0243073l17.680573 143.62675l-8.328125 1.0243225z" fill-rule="evenodd"/><path fill="#a4c2f4" d="m520.63806 191.9649l11.067078 -1.3583374l17.435608 141.6004l-11.067078 1.3583374z" fill-rule="evenodd"/><path stroke="#000000" stroke-width="1.0" stroke-linejoin="round" stroke-linecap="butt" d="m520.63806 191.9649l11.067078 -1.3583374l17.435608 141.6004l-11.067078 1.3583374z" fill-rule="evenodd"/><path fill="#a4c2f4" d="m545.7431 194.4793l3.585083 -0.42308044l14.897095 120.80237l-3.585083 0.4230652z" fill-rule="evenodd"/><path stroke="#000000" stroke-width="1.0" stroke-linejoin="round" stroke-linecap="butt" d="m545.7431 194.4793l3.585083 -0.42308044l14.897095 120.80237l-3.585083 0.4230652z" fill-rule="evenodd"/><path fill="#000000" fill-opacity="0.0" d="m429.47433 204.33794l0 0c32.516235 -32.51622 85.23544 -32.51622 117.75168 0l0 0c15.614868 15.614853 24.387207 36.79312 24.387207 58.87584c0 22.082733 -8.772339 43.261017 -24.387207 58.875854l0 0c-32.516235 32.516235 -85.23544 32.516235 -117.75168 0l0 0c-32.516235 -32.516235 -32.516235 -85.23546 0 -117.75169z" fill-rule="evenodd"/><path stroke="#45818e" stroke-width="24.0" stroke-linejoin="round" stroke-linecap="butt" d="m429.47433 204.33794l0 0c32.516235 -32.51622 85.23544 -32.51622 117.75168 0l0 0c15.614868 15.614853 24.387207 36.79312 24.387207 58.87584c0 22.082733 -8.772339 43.261017 -24.387207 58.875854l0 0c-32.516235 32.516235 -85.23544 32.516235 -117.75168 0l0 0c-32.516235 -32.516235 -32.516235 -85.23546 0 -117.75169z" fill-rule="evenodd"/><path fill="#666666" d="m231.53691 433.27573l0 0c-14.302719 -13.097473 42.803116 -98.70642 127.549484 -191.21286c84.74634 -92.50647 165.04147 -156.88016 179.34421 -143.78265l0 0c-44.375305 32.076355 -106.0224 89.73877 -166.39554 155.64021c-60.37314 65.90141 -112.42566 132.34996 -140.49815 179.3553z" fill-rule="evenodd"/><path fill="#666666" d="m47.98686 451.29724l0 0c-0.93465805 -8.780853 39.487072 -20.260864 90.284454 -25.641266c50.79738 -5.380432 92.7345 -2.6238403 93.66914 6.157013l0 0c-22.245453 -2.7045593 -56.63501 -2.0404663 -92.82297 1.7925415c-36.187965 3.8330078 -69.95054 10.387543 -91.13063 17.691711z" fill-rule="evenodd"/></g></svg>